<svg version="1.1" xmlns="http://www.w3.org/2000/svg" xmlns:xlink="http://www.w3.org/1999/xlink" width="752" height="32" viewBox="0 0 752 32">
<symbol id="icon-vector1" viewBox="0 0 46 32">
<title>vector1</title>
<path d="M31.449 1.558v-0.695h-0.233l-0.020-0.863-31.196 0.832 0.059 2.215v28.953h31.389v-0.632c8.232 0 14.905-6.673 14.905-14.905s-6.673-14.905-14.905-14.905zM31.449 15.832c0.011 0 0.021 0 0.032 0 0.331 0 0.6 0.269 0.6 0.6s-0.269 0.6-0.6 0.6v0c-0.011 0-0.021 0-0.032 0zM31.48 20.695h-0.032v-2.274h0.032c1.099 0 1.989-0.891 1.989-1.989s-0.891-1.989-1.989-1.989v0h-0.032v-2.147h0.032c2.32 0 4.2 1.88 4.2 4.2s-1.88 4.2-4.2 4.2v0z"></path>
</symbol>
<symbol id="icon-vector2" viewBox="0 0 37 32">
<title>vector2</title>
<path d="M20.399 7.347v-2.61h0.967v-4.737h-4.737v4.737h0.87v2.61h-10.538v-1.063h-3.867v1.063h-3.094v24.653h36.544v-24.653zM17.498 0.87h2.9v2.9h-2.9zM19.142 26.683c-3.524 0-6.381-2.857-6.381-6.381s2.857-6.381 6.381-6.381c3.524 0 6.381 2.857 6.381 6.381v0c0 3.524-2.857 6.381-6.381 6.381v0zM31.372 10.344c-0.4 0-0.725-0.325-0.725-0.725s0.325-0.725 0.725-0.725c0.4 0 0.725 0.325 0.725 0.725v0c0 0.4-0.325 0.725-0.725 0.725v0zM33.595 10.344c-0.4 0-0.725-0.325-0.725-0.725s0.325-0.725 0.725-0.725c0.4 0 0.725 0.325 0.725 0.725v0c0 0.4-0.325 0.725-0.725 0.725v0z"></path>
<path d="M24.653 20.35c0 3.017-2.446 5.462-5.462 5.462s-5.462-2.446-5.462-5.462c0-3.017 2.446-5.462 5.462-5.462s5.462 2.446 5.462 5.462z"></path>
</symbol>
<symbol id="icon-vector3" viewBox="0 0 32 32">
<title>vector3</title>
<path d="M31.639 23.887v-23.887h-31.639v23.887h12.259v5.048h0.023c-0.184 0.263-0.294 0.589-0.294 0.941 0 0.001 0 0.001 0 0.002v-0 0.458c0 0 0 0.001 0 0.001 0 0.919 0.745 1.663 1.663 1.663 0 0 0.001 0 0.001 0h5.145c0 0 0.001 0 0.001 0 0.919 0 1.663-0.745 1.663-1.663 0-0 0-0.001 0-0.001v0-0.458c0-0 0-0.001 0-0.001 0-0.392-0.136-0.751-0.363-1.035l0.003 0.003v-4.958zM29.927 23.437c-0.149 0-0.27-0.121-0.27-0.27s0.121-0.27 0.27-0.27c0.149 0 0.27 0.121 0.27 0.27v0c0 0.149-0.121 0.27-0.27 0.27v0zM0.992 22.445v-21.454h29.476v21.454z"></path>
</symbol>
<symbol id="icon-vector4" viewBox="0 0 19 32">
<title>vector4</title>
<path d="M19.341 7.297v-3.429h-0.176v-1.791c0-1.147-0.93-2.077-2.077-2.077v0h-15.010c-1.147 0-2.077 0.93-2.077 2.077v0 27.845c0 1.147 0.93 2.077 2.077 2.077v0h15.010c1.147 0 2.077-0.93 2.077-2.077v0-18.406h0.176v-2.989h-0.176v-1.231zM9.275 1.143c0.121 0 0.22 0.098 0.22 0.22s-0.098 0.22-0.22 0.22c-0.121 0-0.22-0.098-0.22-0.22v0c0-0.121 0.098-0.22 0.22-0.22v0zM7.956 1.055c0.17 0 0.308 0.138 0.308 0.308s-0.138 0.308-0.308 0.308c-0.17 0-0.308-0.138-0.308-0.308v0c0-0.17 0.138-0.308 0.308-0.308v0zM17.758 30.681h-16.44v-28.308h16.44z"></path>
</symbol>
<symbol id="icon-vector5" viewBox="0 0 22 32">
<title>vector5</title>
<path d="M4.14 2.118v21.763c-0.332-0.212-0.736-0.338-1.169-0.341h-0.001c-1.641 0-2.97 1.89-2.97 4.23s1.329 4.23 2.97 4.23 2.97-1.89 2.97-4.23v-25.652z"></path>
<path d="M4.275 3.424l-0.163-1.381 17.353-2.045 0.163 1.381-17.353 2.045z"></path>
<path d="M19.801 0.138v21.763c-0.332-0.212-0.736-0.338-1.169-0.341h-0.001c-1.641 0-2.97 1.89-2.97 4.23s1.329 4.23 2.97 4.23 2.97-1.89 2.97-4.23v-25.652z"></path>
</symbol>
</svg>
