<svg id="Layer_1" data-name="Layer 1" xmlns="http://www.w3.org/2000/svg" viewBox="0 0 240.3 355.53">
	<title>vector5</title>
	<path d="M228,174V415.79A24.74,24.74,0,0,0,215,412c-18.23,0-33,21-33,47s14.77,47,33,47,33-21,33-47V174Z" transform="translate(-182 -150.47)" fill="#050505"/>
	<rect x="317.28" y="72.44" width="15.45" height="194.13" transform="translate(12.68 361.62) rotate(-96.72)" fill="#050505"/>
	<path d="M402,152V393.79A24.74,24.74,0,0,0,389,390c-18.23,0-33,21-33,47s14.77,47,33,47,33-21,33-47V152Z" transform="translate(-182 -150.47)" fill="#050505"/>
</svg>